<svg width="382" height="50" viewBox="0 0 382 50" fill="none" xmlns="http://www.w3.org/2000/svg">
<path d="M26.0012 48.5549C38.972 48.5549 49.4868 38.04 49.4868 25.0693C49.4868 12.0986 38.972 1.5837 26.0012 1.5837C13.0305 1.5837 2.51562 12.0986 2.51562 25.0693C2.51562 38.04 13.0305 48.5549 26.0012 48.5549Z" stroke="#665DCD" stroke-width="1.69968"/>
<path d="M14.6318 5.00756C14.9576 4.69956 15.6521 4.49991 16.9675 4.752C18.2432 4.99646 19.8759 5.62873 21.7676 6.63366C25.54 8.63767 30.1648 12.0278 34.725 16.3378C39.2852 20.6479 42.8721 25.0189 44.9924 28.5844C46.0557 30.3723 46.7246 31.9155 46.9833 33.1212C47.25 34.3645 47.0387 35.0208 46.7129 35.3288C46.387 35.6368 45.6926 35.8365 44.3771 35.5844C43.1014 35.3399 41.4687 34.7076 39.577 33.7027C35.8046 31.6987 31.1799 28.3086 26.6197 23.9985C22.0595 19.6885 18.4726 15.3174 16.3522 11.752C15.289 9.96404 14.62 8.42088 14.3614 7.2152C14.0947 5.97189 14.3059 5.31555 14.6318 5.00756Z" stroke="#665DCD" stroke-width="1.69968"/>
<path d="M38.2484 4.99761C38.5666 5.29836 38.7758 5.95692 38.4863 7.22827C38.2065 8.45695 37.5054 10.0322 36.402 11.859C34.2015 15.5019 30.5034 19.9784 25.8207 24.4042C21.138 28.8301 16.4016 32.3253 12.5473 34.4051C10.6145 35.448 8.94787 36.1106 7.64788 36.3751C6.30275 36.6487 5.60597 36.4509 5.28776 36.1502C4.96955 35.8494 4.7603 35.1909 5.0498 33.9195C5.32958 32.6908 6.03071 31.1156 7.13416 29.2888C9.33465 25.6459 13.0326 21.1694 17.7154 16.7435C22.3981 12.3177 27.1344 8.8225 30.9888 6.74273C32.9216 5.69981 34.5882 5.03714 35.8882 4.7727C37.2334 4.49909 37.9302 4.69686 38.2484 4.99761Z" stroke="#665DCD" stroke-width="1.69968"/>
<path d="M360.441 4.12675H365.825V41.8997H381.295V45.739H360.441V4.12675Z" fill="#665DCD"/>
<path d="M345.347 13.4152C345.347 9.49341 342.844 7.53252 337.839 7.53252C332.885 7.53252 330.408 9.49341 330.408 13.4152V36.4505C330.408 40.4136 332.885 42.3951 337.839 42.3951C342.844 42.3951 345.347 40.4136 345.347 36.4505V13.4152ZM325.023 13.3533C325.023 10.4223 326.11 8.04854 328.284 6.23214C330.458 4.41573 333.643 3.50753 337.839 3.50753C342.086 3.50753 345.296 4.41573 347.47 6.23214C349.644 8.04854 350.731 10.4223 350.731 13.3533V36.5744C350.731 39.5054 349.644 41.8791 347.47 43.6955C345.296 45.4706 342.086 46.3582 337.839 46.3582C333.592 46.3582 330.382 45.4706 328.208 43.6955C326.085 41.8791 325.023 39.5054 325.023 36.5744V13.3533Z" fill="#665DCD"/>
<path d="M309.849 4.12675H315.308V45.739H309.849V27.2859H293.62V45.739H288.236V4.12675H293.62V23.3848H309.849V4.12675Z" fill="#665DCD"/>
<path d="M273.145 13.4152C273.145 9.49341 270.643 7.53252 265.638 7.53252C260.684 7.53252 258.206 9.49341 258.206 13.4152V36.4505C258.206 40.4136 260.684 42.3951 265.638 42.3951C270.643 42.3951 273.145 40.4136 273.145 36.4505V13.4152ZM252.822 13.3533C252.822 10.4223 253.909 8.04854 256.083 6.23214C258.257 4.41573 261.442 3.50753 265.638 3.50753C269.885 3.50753 273.095 4.41573 275.269 6.23214C277.442 8.04854 278.529 10.4223 278.529 13.3533V36.5744C278.529 39.5054 277.442 41.8791 275.269 43.6955C273.095 45.4706 269.885 46.3582 265.638 46.3582C261.391 46.3582 258.181 45.4706 256.007 43.6955C253.884 41.8791 252.822 39.5054 252.822 36.5744V13.3533Z" fill="#665DCD"/>
<path d="M243.089 4.12675V45.739H237.933V23.8182C237.933 19.5662 238.084 15.4587 238.388 11.4956L227.999 34.6548H222.311L211.771 11.4956C212.125 15.3348 212.301 19.4217 212.301 23.7563V45.739H207.221V4.12675H213.591L225.117 30.1963L236.644 4.12675H243.089Z" fill="#665DCD"/>
<path d="M172.471 12.9817C172.471 10.1333 173.608 7.90405 175.883 6.29405C178.209 4.64277 181.773 3.81713 186.576 3.81713C189.811 3.81713 192.87 4.16803 195.751 4.86983V9.08059C192.769 8.29623 189.71 7.90405 186.576 7.90405C183.441 7.90405 181.191 8.35815 179.826 9.26635C178.512 10.1333 177.855 11.4543 177.855 13.2294V37.0698C177.855 40.4136 180.281 42.0855 185.135 42.0855C188.32 42.0855 190.595 41.6521 191.96 40.7851V25.3044H197.344V43.5717C193.754 45.2229 189.836 46.0486 185.59 46.0486C176.844 46.0486 172.471 43.1176 172.471 37.2555V12.9817Z" fill="#665DCD"/>
<path d="M157.914 38.6798L157.384 24.9948V4.12675H162.768V45.739H156.549L146.085 24.1898C145.68 23.3229 143.683 19.0089 140.094 11.2479L140.549 24.8709V45.739H135.316V4.12675H141.535C149.573 20.8047 155.033 32.3223 157.914 38.6798Z" fill="#665DCD"/>
<path d="M120.22 13.4152C120.22 9.49341 117.717 7.53252 112.712 7.53252C107.758 7.53252 105.281 9.49341 105.281 13.4152V36.4505C105.281 40.4136 107.758 42.3951 112.712 42.3951C117.717 42.3951 120.22 40.4136 120.22 36.4505V13.4152ZM99.8965 13.3533C99.8965 10.4223 100.983 8.04854 103.157 6.23214C105.331 4.41573 108.516 3.50753 112.712 3.50753C116.959 3.50753 120.169 4.41573 122.343 6.23214C124.517 8.04854 125.604 10.4223 125.604 13.3533V36.5744C125.604 39.5054 124.517 41.8791 122.343 43.6955C120.169 45.4706 116.959 46.3582 112.712 46.3582C108.466 46.3582 105.255 45.4706 103.081 43.6955C100.958 41.8791 99.8965 39.5054 99.8965 36.5744V13.3533Z" fill="#665DCD"/>
<path d="M78.8915 29.0198H71.3841V45.739H66V4.12675H78.3607C82.4051 4.12675 85.4636 4.97303 87.5364 6.66559C89.6091 8.31687 90.6455 10.5874 90.6455 13.4771V19.6075C90.6455 24.0659 88.4717 26.9557 84.1239 28.2767L92.238 45.739H86.3231L78.8915 29.0198ZM71.3841 25.1806H78.1332C82.8853 25.1806 85.2614 23.3022 85.2614 19.5456V13.6629C85.2614 9.90623 82.8853 8.0279 78.1332 8.0279H71.3841V25.1806Z" fill="#665DCD"/>
</svg>
